# xmcd
#
# Track frame offsets:
#	150
#	22149
#	37358
#	51148
#	66363
#	79417
#	95703
#	109536
#	126128
#	143121
#	157705
#	171570
#
# Disc length: 2472 seconds
#
# Revision: 0
# Processed by: cddbd v1.5.2PL0 Copyright (c) Steve Scherf et al.
# Submitted via: EasyCDDAExtractor 11.0.3.1
#
DISCID=ad09a60c
DTITLE=George Jones - Burn Your Playhouse Down
DYEAR=2008
DGENRE=Country
TTITLE0=You And Me And Time (With Georgette Jones)
TTITLE1=The Window Up Above (With Leon Russell)
TTITLE2=She Once Lived Here (With Ricky Skaggs)
TTITLE3=Rockin' Years (With Dolly Parton)
TTITLE4=Burn Your Playhouse Down (With Keith Richards)
TTITLE5=Selfishness In Man (With Vince Gill)
TTITLE6=Tavern Choir (With Jim Lauderdale)
TTITLE7=I Always Get It Right With You (With Shelby Lynne)
TTITLE8=When The Grass Grows Over Me (With Mark Chesnutt)
TTITLE9=I Always Get Lucky With You (With Mark Knopfler)
TTITLE10=You're Still On My Mind (With Marty Stuart)
TTITLE11=Lovin' You, Lovin' Me (With Tammy Wynette)
EXTD=
EXTT0=
EXTT1=
EXTT2=
EXTT3=
EXTT4=
EXTT5=
EXTT6=
EXTT7=
EXTT8=
EXTT9=
EXTT10=
EXTT11=
PLAYORDER=
